<?xml version="1.0" encoding="utf-8"?>
<!-- Generator: Adobe Illustrator 23.1.0, SVG Export Plug-In . SVG Version: 6.00 Build 0)  -->
<svg version="1.1" id="Layer_1" xmlns="http://www.w3.org/2000/svg" xmlns:xlink="http://www.w3.org/1999/xlink" x="0px" y="0px"
	 viewBox="0 0 1114 1569.6" style="enable-background:new 0 0 1114 1569.6;" xml:space="preserve">
<style type="text/css">
	.st0{fill:#23211D;}
	.st1{clip-path:url(#SVGID_2_);}
	.st2{fill:#FFFFFF;}
</style>
<path class="st0" d="M1046.2,7V5.7c0-0.4-0.1-0.7-0.3-1c-0.2-0.3-0.5-0.4-0.9-0.4h-59.9c-0.3,0-0.7,0.2-0.9,0.4
	c-0.2,0.3-0.3,0.6-0.3,1v1.2H69.5c-43.7,0-69,32.4-69,74.1l0,1414.5c0,41.7,25.3,74.1,69,74.1H1043c43.7,0,69-32.4,69-74.1l0-1257.5
	h1.2c0.3,0,0.7-0.1,0.9-0.4c0.3-0.2,0.4-0.6,0.4-0.9v-53c0-0.4-0.2-0.7-0.4-0.9c-0.3-0.2-0.6-0.4-0.9-0.4h-1.2v-11.2h1.2
	c0.3,0,0.7-0.1,0.9-0.4s0.4-0.6,0.4-0.9v-53c0-0.4-0.2-0.7-0.4-0.9c-0.3-0.2-0.6-0.4-0.9-0.4h-1.2V81C1112,40.4,1087.9,8.6,1046.2,7
	z"/>
<g>
	<defs>
		<path id="SVGID_1_" d="M63.5,50.5h988c9.9,0,18,8.7,18,19.4v1434.7c0,10.7-8.1,19.4-18,19.4h-988c-9.9,0-18-8.7-18-19.4V69.9
			C45.5,59.2,53.6,50.5,63.5,50.5z"/>
	</defs>
	<clipPath id="SVGID_2_">
		<use xlink:href="#SVGID_1_"  style="overflow:visible;"/>
	</clipPath>
	<g class="st1">
		<path class="st2" d="M63.5-65.5h988c9.9,0,18,8.7,18,19.4v1434.7c0,10.7-8.1,19.4-18,19.4h-988c-9.9,0-18-8.7-18-19.4V-46.1
			C45.5-56.8,53.6-65.5,63.5-65.5z"/>
		<rect x="45.5" y="-3.4" class="st2" width="1024" height="1581.4"/>
	</g>
</g>
</svg>
